<svg width="40" height="40" viewBox="0 0 40 40" fill="none" xmlns="http://www.w3.org/2000/svg">
<path d="M31 8V25V32C31 32.7956 30.6839 33.5587 30.1213 34.1213C29.5587 34.6839 28.7956 35 28 35H12C11.2044 35 10.4413 34.6839 9.87868 34.1213C9.31607 33.5587 9 32.7956 9 32V8C9 7.20435 9.31607 6.44129 9.87868 5.87868C10.4413 5.31607 11.2044 5 12 5H28C28.7956 5 29.5587 5.31607 30.1213 5.87868C30.6839 6.44129 31 7.20435 31 8Z" fill="url(#paint0_linear_1509_1501)" fill-opacity="0.24"/>
<path d="M24 5H16M28 5C28.7957 5 29.5587 5.31607 30.1213 5.87868C30.6839 6.44129 31 7.20435 31 8V32C31 32.7957 30.6839 33.5587 30.1213 34.1213C29.5587 34.6839 28.7956 35 28 35H12C11.2044 35 10.4413 34.6839 9.87868 34.1213C9.31607 33.5587 9 32.7956 9 32V8C9 7.20435 9.31607 6.44129 9.87868 5.87868C10.4413 5.31607 11.2044 5 12 5" stroke="white" stroke-linecap="round" stroke-linejoin="round"/>
<path opacity="0.48" d="M13 16H27" stroke="white" stroke-linecap="round" stroke-linejoin="round"/>
<path opacity="0.48" d="M13 12H27" stroke="white" stroke-linecap="round" stroke-linejoin="round"/>
<path d="M13 20L27 20" stroke="white" stroke-linecap="round" stroke-linejoin="round"/>
<path d="M14 28.25C16.25 28.25 16.25 26 16.25 26C16.25 26 16.25 28.25 18.5 28.25C16.25 28.25 16.25 30.5 16.25 30.5C16.25 30.5 16.25 28.25 14 28.25Z" fill="white"/>
<path d="M26.4999 26.0004H26.5099M16.2499 24.3027C16.2499 24.3027 13.25 28.2504 11 28.2504C13.25 28.2504 16.2499 31.5004 16.2499 31.5004C16.2499 31.5004 19.4942 28.2504 21.7442 28.2504C19.4942 28.2504 16.2499 24.3027 16.2499 24.3027Z" stroke="white" stroke-width="1.5" stroke-linecap="round" stroke-linejoin="round"/>
<defs>
<linearGradient id="paint0_linear_1509_1501" x1="20" y1="5" x2="20" y2="35" gradientUnits="userSpaceOnUse">
<stop stop-color="white" stop-opacity="0"/>
<stop offset="1" stop-color="white"/>
</linearGradient>
</defs>
</svg>
