<svg width="34" height="35" viewBox="0 0 34 35" fill="none" xmlns="http://www.w3.org/2000/svg">
<circle cx="17" cy="17.7339" r="16.5" transform="rotate(90 17 17.7339)" stroke="black"/>
<path d="M13.8831 19.6772L18.0906 23.8847C18.2624 24.0554 18.4947 24.1513 18.7369 24.1513C18.9791 24.1513 19.2114 24.0554 19.3831 23.8847C19.4691 23.7995 19.5373 23.6981 19.5838 23.5864C19.6303 23.4747 19.6543 23.3549 19.6543 23.2339C19.6543 23.1129 19.6303 22.9931 19.5838 22.8814C19.5373 22.7696 19.4691 22.6683 19.3831 22.583L15.1665 18.3847C15.0806 18.2995 15.0124 18.1981 14.9658 18.0864C14.9193 17.9747 14.8953 17.8549 14.8953 17.7339C14.8953 17.6129 14.9193 17.4931 14.9658 17.3814C15.0124 17.2696 15.0806 17.1683 15.1665 17.083L19.3831 12.8847C19.5558 12.7133 19.6532 12.4804 19.6541 12.2371C19.6549 11.9939 19.5591 11.7602 19.3877 11.5876C19.2163 11.415 18.9834 11.3176 18.7401 11.3167C18.4969 11.3158 18.2633 11.4117 18.0906 11.583L13.8831 15.7905C13.3682 16.3062 13.0789 17.0051 13.0789 17.7339C13.0789 18.4626 13.3682 19.1616 13.8831 19.6772Z" fill="black"/>
</svg>
