<svg width="11" height="20" viewBox="0 0 11 20" fill="none" xmlns="http://www.w3.org/2000/svg">
<path d="M8.11843 0.940918C6.86728 0.940918 5.66737 1.42466 4.78267 2.28572C3.89798 3.14679 3.40096 4.31465 3.40096 5.53238V8.0887H0.876471C0.749992 8.0887 0.646973 8.18798 0.646973 8.31207V11.6874C0.646973 11.8105 0.748972 11.9108 0.876471 11.9108H3.40096V18.8352C3.40096 18.9583 3.50296 19.0586 3.63046 19.0586H7.09844C7.22492 19.0586 7.32793 18.9593 7.32793 18.8352V11.9108H9.87486C9.97992 11.9108 10.0717 11.8413 10.0972 11.742L10.9642 8.36667C10.9727 8.33373 10.9734 8.29934 10.9663 8.2661C10.9591 8.23286 10.9442 8.20165 10.9228 8.17485C10.9013 8.14805 10.8739 8.12636 10.8425 8.11143C10.8112 8.0965 10.7768 8.08873 10.7419 8.0887H7.32793V5.53238C7.32793 5.43134 7.34838 5.33129 7.38811 5.23795C7.42783 5.1446 7.48606 5.05979 7.55947 4.98834C7.63287 4.9169 7.72001 4.86023 7.81592 4.82156C7.91183 4.7829 8.01462 4.763 8.11843 4.763H10.7704C10.8969 4.763 10.9999 4.66372 10.9999 4.53963V1.16429C10.9999 1.04119 10.8979 0.940918 10.7704 0.940918H8.11843Z" fill="white"/>
</svg>
