<svg width="34" height="35" viewBox="0 0 34 35" fill="none" xmlns="http://www.w3.org/2000/svg">
<circle cx="17" cy="17.7339" r="16.5" transform="rotate(90 17 17.7339)" stroke="black"/>
<path d="M20.1169 15.7906L15.9094 11.5831C15.7376 11.4123 15.5053 11.3165 15.2631 11.3165C15.0209 11.3165 14.7886 11.4123 14.6169 11.5831C14.5309 11.6683 14.4627 11.7697 14.4162 11.8814C14.3697 11.9931 14.3457 12.1129 14.3457 12.2339C14.3457 12.3549 14.3697 12.4747 14.4162 12.5864C14.4627 12.6981 14.5309 12.7995 14.6169 12.8847L18.8335 17.0831C18.9194 17.1683 18.9876 17.2697 19.0342 17.3814C19.0807 17.4931 19.1047 17.6129 19.1047 17.7339C19.1047 17.8549 19.0807 17.9747 19.0342 18.0864C18.9876 18.1981 18.9194 18.2995 18.8335 18.3847L14.6169 22.5831C14.4442 22.7545 14.3468 22.9874 14.3459 23.2307C14.3451 23.4739 14.4409 23.7075 14.6123 23.8801C14.7837 24.0528 15.0166 24.1502 15.2599 24.1511C15.5031 24.1519 15.7367 24.0561 15.9094 23.8847L20.1169 19.6772C20.6318 19.1616 20.9211 18.4626 20.9211 17.7339C20.9211 17.0051 20.6318 16.3062 20.1169 15.7906Z" fill="black"/>
</svg>
